<?xml version="1.0" encoding="UTF-8"?>
<svg width="90px" height="90px" viewBox="0 0 90 90" version="1.1" xmlns="http://www.w3.org/2000/svg" xmlns:xlink="http://www.w3.org/1999/xlink">
    <title>A4611BAB-07DC-406D-B39D-9EE6833F7556</title>
    <defs>
        <linearGradient x1="49.8239611%" y1="99.2511641%" x2="50.1361744%" y2="12.3069705%" id="linearGradient-1">
            <stop stop-color="#FFB300" offset="0%"></stop>
            <stop stop-color="#FFB800" offset="4.77%"></stop>
            <stop stop-color="#FFD000" offset="32.78%"></stop>
            <stop stop-color="#FFD900" offset="50%"></stop>
            <stop stop-color="#FFDD09" offset="67.22%"></stop>
            <stop stop-color="#FFE921" offset="95.23%"></stop>
            <stop stop-color="#FFEB26" offset="100%"></stop>
        </linearGradient>
    </defs>
    <g id="DESKTOP" stroke="none" stroke-width="1" fill="none" fill-rule="evenodd">
        <g id="Desktop-Search" transform="translate(-48.000000, -10.000000)" fill-rule="nonzero">
            <g id="Desktop/Header" transform="translate(3.000000, 0.000000)">
                <g id="Desktop/Logo/Desktop" transform="translate(45.000000, 10.000000)">
                    <g id="Yale_Logo_Primary_Regular_RGB">
                        <path d="M90,45 C90,69.8525469 69.8511254,90 44.9968249,90 C20.1488746,89.9936503 0,69.8525469 0,45 C0,20.1474531 20.1488746,0 45.0031751,0 C69.8511254,0 90,20.1474531 90,45" id="Path" fill="url(#linearGradient-1)"></path>
                        <g id="Group" transform="translate(8.000000, 28.000000)" fill="#000000">
                            <polygon id="Path" points="26.5275652 0.6208 20.6748696 0.6208 13.5272174 14.2784 6.33513043 0.6208 0.438 0.6208 10.804 19.4176 10.804 31.0912 16.1552174 31.0912 16.1552174 19.5072"></polygon>
                            <path d="M31.3646087,8.2112 C25.3468696,8.2112 22.5030435,11.456 22.2491304,15.84 L27.4353043,15.84 C27.5622609,13.9008 28.6033043,12.5952 31.3265217,12.5952 C34.4623478,12.5952 35.3383478,14.112 35.3383478,16.4288 L35.3383478,17.8624 L30.6155652,17.8624 C27.5622609,17.8624 25.6388696,18.24 24.2169565,19.168 C22.376087,20.3456 21.3731304,22.0736 21.3731304,24.5632 C21.3731304,27.7696 23.2965217,31.4368 29.3142609,31.4368 C32.2406087,31.4368 34.3290435,30.4704 35.585913,28.864 L35.585913,31.0592 L40.5181739,31.0592 L40.5181739,16.512 C40.5181739,11.7504 37.9282609,8.2112 31.3646087,8.2112 Z M35.3383478,23.9296 C35.3383478,26.2912 33.249913,27.3856 30.4441739,27.3856 C27.3527826,27.3856 26.5593043,26.0352 26.5593043,24.4352 C26.5593043,23.552 26.8957391,22.7904 27.6066957,22.3296 C28.1906957,21.952 29.1111304,21.824 30.8694783,21.824 L35.3446957,21.824 L35.3446957,23.9296 L35.3383478,23.9296 Z" id="Shape"></path>
                            <path d="M70.1434783,11.5008 C68.474,9.4784 65.9221739,8.2112 62.4118261,8.2112 C58.6094783,8.2112 56.0957391,9.6 54.5087826,11.5392 C52.5028696,14.0288 52.0394783,17.4848 52.0394783,19.968 C52.0394783,22.368 52.4584348,25.3184 54.0898261,27.6416 C55.7212174,29.9584 58.3936522,31.4368 62.6593913,31.4368 C65.5032174,31.4368 67.7630435,30.7648 69.35,29.5808 C71.063913,28.3136 72.1493913,26.464 72.3207826,24.3968 L67.1346087,24.3968 C67.0076522,25.1136 66.5886957,25.8304 65.9666087,26.2912 C65.2112174,26.8416 64.1701739,27.0912 62.6657391,27.0912 C60.6153913,27.0912 59.237913,26.4576 58.4,25.28 C57.7334783,24.352 57.4414783,22.88 57.4414783,21.568 L72.5366087,21.568 C72.815913,17.44 72.1049565,13.9008 70.1434783,11.5008 Z M57.4732174,17.696 C57.5176522,16.4288 57.9302609,14.8736 58.8126087,13.9008 C59.6505217,12.9728 60.8629565,12.4672 62.449913,12.4672 C63.9987826,12.4672 65.2112174,12.9728 66.0046957,13.856 C66.8806957,14.8224 67.1726957,16.4672 67.1726957,17.6896 L57.4732174,17.6896 L57.4732174,17.696 Z" id="Shape"></path>
                            <path d="M51.576087,31.2256 L51.576087,26.5472 C49.1512174,26.6752 48.5227826,25.664 48.5227826,23.6416 L48.5227826,0.6208 L43.4635652,0.6208 L43.4635652,24.1408 C43.4635652,28.6976 45.221913,31.5648 51.576087,31.2256 L51.576087,31.2256 Z" id="Path"></path>
                        </g>
                    </g>
                </g>
            </g>
        </g>
    </g>
</svg>